<svg width="590" height="300" viewBox="0 0 590 300" fill="none" xmlns="http://www.w3.org/2000/svg">
<rect width="590" height="300" rx="3" fill="#D2EFE1" fill-opacity="0.85"/>
<rect x="48" y="34" width="87" height="26" rx="3" fill="#3BB77E"/>
<path d="M73.444 51.62C72.988 51.62 72.584 51.536 72.232 51.368C71.888 51.192 71.6 50.956 71.368 50.66C71.136 50.364 70.96 50.032 70.84 49.664C70.72 49.296 70.66 48.916 70.66 48.524C70.66 48.18 70.704 47.796 70.792 47.372C70.88 46.948 71.012 46.516 71.188 46.076C71.372 45.628 71.608 45.2 71.896 44.792C72.184 44.384 72.528 44.02 72.928 43.7C73.328 43.372 73.788 43.12 74.308 42.944C74.38 42.928 74.444 42.92 74.5 42.92C74.628 42.92 74.74 42.956 74.836 43.028C74.94 43.092 74.992 43.212 74.992 43.388C74.992 43.5 74.956 43.6 74.884 43.688C74.812 43.768 74.716 43.828 74.596 43.868C74.276 43.988 73.96 44.164 73.648 44.396C73.344 44.62 73.06 44.888 72.796 45.2C72.54 45.504 72.316 45.836 72.124 46.196C71.94 46.548 71.812 46.916 71.74 47.3L71.452 47.396C71.588 47.18 71.76 46.976 71.968 46.784C72.176 46.592 72.416 46.436 72.688 46.316C72.968 46.196 73.272 46.136 73.6 46.136C73.952 46.136 74.28 46.212 74.584 46.364C74.888 46.516 75.156 46.72 75.388 46.976C75.62 47.232 75.8 47.528 75.928 47.864C76.064 48.192 76.132 48.536 76.132 48.896C76.132 49.384 76.012 49.836 75.772 50.252C75.54 50.66 75.22 50.992 74.812 51.248C74.412 51.496 73.956 51.62 73.444 51.62ZM73.432 50.72C73.76 50.72 74.052 50.644 74.308 50.492C74.572 50.332 74.78 50.116 74.932 49.844C75.084 49.564 75.16 49.248 75.16 48.896C75.16 48.568 75.092 48.264 74.956 47.984C74.82 47.704 74.624 47.48 74.368 47.312C74.12 47.136 73.82 47.048 73.468 47.048C73.092 47.048 72.768 47.132 72.496 47.3C72.224 47.468 72.012 47.696 71.86 47.984C71.716 48.264 71.644 48.576 71.644 48.92C71.644 49.24 71.716 49.536 71.86 49.808C72.004 50.08 72.208 50.3 72.472 50.468C72.744 50.636 73.064 50.72 73.432 50.72ZM80.0076 51.62C79.3436 51.62 78.7876 51.432 78.3396 51.056C77.8996 50.68 77.5636 50.164 77.3316 49.508C77.1076 48.852 76.9956 48.116 76.9956 47.3C76.9956 46.468 77.1076 45.728 77.3316 45.08C77.5636 44.432 77.8996 43.92 78.3396 43.544C78.7876 43.168 79.3436 42.98 80.0076 42.98C80.6716 42.98 81.2236 43.168 81.6636 43.544C82.1116 43.92 82.4476 44.432 82.6716 45.08C82.8956 45.728 83.0076 46.468 83.0076 47.3C83.0076 48.116 82.8956 48.852 82.6716 49.508C82.4476 50.164 82.1116 50.68 81.6636 51.056C81.2236 51.432 80.6716 51.62 80.0076 51.62ZM80.0076 50.648C80.4316 50.648 80.7876 50.512 81.0756 50.24C81.3716 49.968 81.5956 49.584 81.7476 49.088C81.8996 48.584 81.9756 47.988 81.9756 47.3C81.9756 46.604 81.8996 46.008 81.7476 45.512C81.5956 45.008 81.3716 44.624 81.0756 44.36C80.7876 44.088 80.4316 43.952 80.0076 43.952C79.5836 43.952 79.2236 44.088 78.9276 44.36C78.6396 44.624 78.4156 45.008 78.2556 45.512C78.1036 46.008 78.0276 46.604 78.0276 47.3C78.0276 47.988 78.1036 48.584 78.2556 49.088C78.4156 49.584 78.6396 49.968 78.9276 50.24C79.2236 50.512 79.5836 50.648 80.0076 50.648ZM85.7147 47.48C85.3467 47.48 85.0307 47.38 84.7667 47.18C84.5107 46.972 84.3107 46.7 84.1667 46.364C84.0307 46.02 83.9627 45.648 83.9627 45.248C83.9627 44.84 84.0307 44.464 84.1667 44.12C84.3107 43.776 84.5147 43.504 84.7787 43.304C85.0427 43.096 85.3587 42.992 85.7267 42.992C86.0947 42.992 86.4067 43.096 86.6627 43.304C86.9267 43.504 87.1267 43.776 87.2627 44.12C87.3987 44.456 87.4667 44.828 87.4667 45.236C87.4667 45.644 87.3947 46.02 87.2507 46.364C87.1067 46.7 86.9027 46.972 86.6387 47.18C86.3827 47.38 86.0747 47.48 85.7147 47.48ZM85.7267 46.7C86.0307 46.7 86.2547 46.564 86.3987 46.292C86.5427 46.012 86.6147 45.664 86.6147 45.248C86.6147 44.824 86.5387 44.472 86.3867 44.192C86.2347 43.912 86.0107 43.772 85.7147 43.772C85.4107 43.772 85.1827 43.916 85.0307 44.204C84.8867 44.484 84.8147 44.828 84.8147 45.236C84.8147 45.66 84.8907 46.012 85.0427 46.292C85.2027 46.564 85.4307 46.7 85.7267 46.7ZM90.7187 51.608C90.3587 51.608 90.0467 51.508 89.7827 51.308C89.5267 51.1 89.3267 50.828 89.1827 50.492C89.0387 50.148 88.9667 49.776 88.9667 49.376C88.9667 48.968 89.0347 48.592 89.1707 48.248C89.3147 47.904 89.5187 47.632 89.7827 47.432C90.0467 47.224 90.3627 47.12 90.7307 47.12C91.1067 47.12 91.4227 47.224 91.6787 47.432C91.9427 47.632 92.1427 47.904 92.2787 48.248C92.4147 48.584 92.4827 48.956 92.4827 49.364C92.4827 49.772 92.4107 50.148 92.2667 50.492C92.1227 50.828 91.9187 51.1 91.6547 51.308C91.3987 51.508 91.0867 51.608 90.7187 51.608ZM90.7307 50.828C91.0427 50.828 91.2707 50.692 91.4147 50.42C91.5587 50.14 91.6307 49.792 91.6307 49.376C91.6307 48.952 91.5547 48.6 91.4027 48.32C91.2507 48.04 91.0227 47.9 90.7187 47.9C90.4147 47.9 90.1867 48.044 90.0347 48.332C89.8907 48.612 89.8187 48.956 89.8187 49.364C89.8187 49.788 89.8947 50.14 90.0467 50.42C90.2067 50.692 90.4347 50.828 90.7307 50.828ZM85.6667 51.524C85.5707 51.524 85.4747 51.488 85.3787 51.416C85.2827 51.344 85.2347 51.244 85.2347 51.116C85.2347 51.044 85.2627 50.96 85.3187 50.864L90.3347 43.268C90.4307 43.132 90.5427 43.064 90.6707 43.064C90.7747 43.064 90.8707 43.1 90.9587 43.172C91.0547 43.244 91.1027 43.344 91.1027 43.472C91.1027 43.552 91.0787 43.636 91.0307 43.724L86.0147 51.332C85.9187 51.46 85.8027 51.524 85.6667 51.524ZM102.808 48.38C102.808 49.004 102.668 49.56 102.388 50.048C102.116 50.536 101.744 50.92 101.272 51.2C100.808 51.48 100.284 51.62 99.6998 51.62C99.1158 51.62 98.5878 51.48 98.1158 51.2C97.6438 50.92 97.2678 50.536 96.9878 50.048C96.7158 49.56 96.5798 49.004 96.5798 48.38C96.5798 47.756 96.7158 47.2 96.9878 46.712C97.2678 46.224 97.6438 45.84 98.1158 45.56C98.5878 45.28 99.1158 45.14 99.6998 45.14C100.284 45.14 100.808 45.28 101.272 45.56C101.744 45.84 102.116 46.224 102.388 46.712C102.668 47.2 102.808 47.756 102.808 48.38ZM101.848 48.38C101.848 47.916 101.752 47.508 101.56 47.156C101.376 46.804 101.12 46.528 100.792 46.328C100.472 46.128 100.108 46.028 99.6998 46.028C99.2918 46.028 98.9238 46.128 98.5958 46.328C98.2758 46.528 98.0198 46.804 97.8278 47.156C97.6358 47.508 97.5398 47.916 97.5398 48.38C97.5398 48.836 97.6358 49.24 97.8278 49.592C98.0198 49.944 98.2758 50.224 98.5958 50.432C98.9238 50.632 99.2918 50.732 99.6998 50.732C100.108 50.732 100.472 50.632 100.792 50.432C101.12 50.224 101.376 49.944 101.56 49.592C101.752 49.24 101.848 48.836 101.848 48.38ZM106.724 42.644C106.86 42.644 107 42.66 107.144 42.692C107.296 42.724 107.424 42.78 107.528 42.86C107.64 42.94 107.696 43.048 107.696 43.184C107.696 43.312 107.656 43.42 107.576 43.508C107.496 43.588 107.4 43.628 107.288 43.628C107.216 43.628 107.116 43.608 106.988 43.568C106.86 43.52 106.728 43.496 106.592 43.496C106.408 43.496 106.256 43.536 106.136 43.616C106.024 43.696 105.94 43.804 105.884 43.94C105.836 44.068 105.812 44.212 105.812 44.372V51.008C105.812 51.144 105.764 51.26 105.668 51.356C105.58 51.452 105.468 51.5 105.332 51.5C105.188 51.5 105.072 51.452 104.984 51.356C104.896 51.26 104.852 51.144 104.852 51.008V44.384C104.852 43.848 105.016 43.424 105.344 43.112C105.68 42.8 106.14 42.644 106.724 42.644ZM107.06 45.392C107.188 45.392 107.296 45.436 107.384 45.524C107.472 45.604 107.516 45.708 107.516 45.836C107.516 45.964 107.472 46.072 107.384 46.16C107.296 46.24 107.188 46.28 107.06 46.28H104.048C103.92 46.28 103.812 46.236 103.724 46.148C103.636 46.06 103.592 45.956 103.592 45.836C103.592 45.7 103.636 45.592 103.724 45.512C103.812 45.432 103.92 45.392 104.048 45.392H107.06ZM111.356 42.644C111.492 42.644 111.632 42.66 111.776 42.692C111.928 42.724 112.056 42.78 112.16 42.86C112.272 42.94 112.328 43.048 112.328 43.184C112.328 43.312 112.288 43.42 112.208 43.508C112.128 43.588 112.032 43.628 111.92 43.628C111.848 43.628 111.748 43.608 111.62 43.568C111.492 43.52 111.36 43.496 111.224 43.496C111.04 43.496 110.888 43.536 110.768 43.616C110.656 43.696 110.572 43.804 110.516 43.94C110.468 44.068 110.444 44.212 110.444 44.372V51.008C110.444 51.144 110.396 51.26 110.3 51.356C110.212 51.452 110.1 51.5 109.964 51.5C109.82 51.5 109.704 51.452 109.616 51.356C109.528 51.26 109.484 51.144 109.484 51.008V44.384C109.484 43.848 109.648 43.424 109.976 43.112C110.312 42.8 110.772 42.644 111.356 42.644ZM111.692 45.392C111.82 45.392 111.928 45.436 112.016 45.524C112.104 45.604 112.148 45.708 112.148 45.836C112.148 45.964 112.104 46.072 112.016 46.16C111.928 46.24 111.82 46.28 111.692 46.28H108.68C108.552 46.28 108.444 46.236 108.356 46.148C108.268 46.06 108.224 45.956 108.224 45.836C108.224 45.7 108.268 45.592 108.356 45.512C108.444 45.432 108.552 45.392 108.68 45.392H111.692Z" fill="white"/>
<path d="M68.132 93.2C68.132 94.6187 67.8987 95.944 67.432 97.176C66.9653 98.3893 66.3027 99.4533 65.444 100.368C64.604 101.283 63.6053 102.001 62.448 102.524C61.2907 103.028 60.0213 103.28 58.64 103.28C57.2773 103.28 56.0173 103.028 54.86 102.524C53.7027 102.001 52.6947 101.283 51.836 100.368C50.996 99.4533 50.3427 98.3893 49.876 97.176C49.428 95.944 49.204 94.6187 49.204 93.2C49.204 91.7813 49.428 90.4653 49.876 89.252C50.3427 88.02 50.996 86.9467 51.836 86.032C52.6947 85.1173 53.7027 84.408 54.86 83.904C56.0173 83.3813 57.2773 83.12 58.64 83.12C60.0213 83.12 61.2907 83.3813 62.448 83.904C63.6053 84.408 64.604 85.1173 65.444 86.032C66.3027 86.9467 66.9653 88.02 67.432 89.252C67.8987 90.4653 68.132 91.7813 68.132 93.2ZM65.108 93.2C65.108 91.8187 64.828 90.5773 64.268 89.476C63.7267 88.3747 62.9707 87.5067 62 86.872C61.0293 86.2373 59.9093 85.92 58.64 85.92C57.3893 85.92 56.2787 86.2373 55.308 86.872C54.3373 87.5067 53.5813 88.3747 53.04 89.476C52.4987 90.5587 52.228 91.8 52.228 93.2C52.228 94.5813 52.4987 95.8227 53.04 96.924C53.5813 98.0253 54.3373 98.8933 55.308 99.528C56.2787 100.163 57.3893 100.48 58.64 100.48C59.9093 100.48 61.0293 100.163 62 99.528C62.9707 98.8933 63.7267 98.0253 64.268 96.924C64.828 95.8227 65.108 94.5813 65.108 93.2ZM72.6608 103C72.2501 103 71.9141 102.869 71.6528 102.608C71.3914 102.328 71.2608 101.983 71.2608 101.572V89.7C71.2608 89.2893 71.3914 88.9533 71.6528 88.692C71.9141 88.412 72.2501 88.272 72.6608 88.272C73.0528 88.272 73.3794 88.412 73.6408 88.692C73.9208 88.9533 74.0608 89.2893 74.0608 89.7V92.836L73.7808 91.632C73.9301 91.1093 74.1541 90.624 74.4528 90.176C74.7701 89.728 75.1434 89.336 75.5728 89C76.0021 88.664 76.4781 88.4027 77.0008 88.216C77.5421 88.0293 78.1021 87.936 78.6808 87.936C79.1661 87.936 79.5861 88.0667 79.9408 88.328C80.2954 88.5893 80.4728 88.916 80.4728 89.308C80.4728 89.812 80.3421 90.1853 80.0808 90.428C79.8194 90.652 79.5301 90.764 79.2128 90.764C78.9328 90.764 78.6621 90.708 78.4008 90.596C78.1394 90.4653 77.8314 90.4 77.4768 90.4C77.0848 90.4 76.6834 90.5027 76.2728 90.708C75.8621 90.9133 75.4888 91.2213 75.1528 91.632C74.8168 92.024 74.5461 92.4907 74.3408 93.032C74.1541 93.5733 74.0608 94.18 74.0608 94.852V101.572C74.0608 101.983 73.9208 102.328 73.6408 102.608C73.3794 102.869 73.0528 103 72.6608 103ZM88.6858 87.936C89.4884 87.936 90.2258 88.0667 90.8978 88.328C91.5698 88.5893 92.1484 88.9253 92.6338 89.336C93.1378 89.728 93.5298 90.1387 93.8098 90.568C94.0898 90.9973 94.2298 91.3707 94.2298 91.688L93.5858 91.716V89.476C93.5858 89.084 93.7164 88.748 93.9778 88.468C94.2391 88.188 94.5751 88.048 94.9857 88.048C95.3964 88.048 95.7324 88.188 95.9938 88.468C96.2551 88.7293 96.3858 89.0653 96.3858 89.476V101.824C96.3858 103.411 96.0498 104.699 95.3777 105.688C94.7058 106.696 93.8098 107.433 92.6898 107.9C91.5884 108.367 90.3751 108.6 89.0498 108.6C88.5831 108.6 88.0324 108.535 87.3978 108.404C86.7631 108.292 86.1751 108.152 85.6338 107.984C85.1111 107.816 84.7471 107.648 84.5418 107.48C84.1124 107.256 83.8231 106.995 83.6738 106.696C83.5431 106.397 83.5431 106.099 83.6738 105.8C83.8604 105.389 84.1124 105.137 84.4298 105.044C84.7471 104.951 85.1111 104.979 85.5218 105.128C85.7084 105.184 85.9978 105.287 86.3898 105.436C86.7818 105.585 87.2204 105.716 87.7058 105.828C88.1911 105.959 88.6484 106.024 89.0778 106.024C90.5711 106.024 91.6911 105.679 92.4378 104.988C93.2031 104.297 93.5858 103.355 93.5858 102.16V99.64L93.8938 99.836C93.8378 100.228 93.6604 100.629 93.3618 101.04C93.0818 101.432 92.7084 101.796 92.2418 102.132C91.7751 102.468 91.2338 102.748 90.6178 102.972C90.0204 103.177 89.4044 103.28 88.7698 103.28C87.4444 103.28 86.2591 102.953 85.2138 102.3C84.1684 101.628 83.3378 100.723 82.7218 99.584C82.1058 98.4267 81.7978 97.1013 81.7978 95.608C81.7978 94.1147 82.1058 92.7987 82.7218 91.66C83.3378 90.5027 84.1591 89.5973 85.1858 88.944C86.2311 88.272 87.3978 87.936 88.6858 87.936ZM89.1058 90.512C88.1911 90.512 87.3884 90.736 86.6978 91.184C86.0071 91.632 85.4658 92.2387 85.0738 93.004C84.6818 93.7693 84.4858 94.6373 84.4858 95.608C84.4858 96.5787 84.6818 97.4467 85.0738 98.212C85.4658 98.9773 86.0071 99.584 86.6978 100.032C87.3884 100.48 88.1911 100.704 89.1058 100.704C90.0204 100.704 90.8231 100.489 91.5138 100.06C92.2044 99.612 92.7458 99.0053 93.1378 98.24C93.5298 97.456 93.7258 96.5787 93.7258 95.608C93.7258 94.6373 93.5298 93.7693 93.1378 93.004C92.7458 92.22 92.2044 91.6133 91.5138 91.184C90.8231 90.736 90.0204 90.512 89.1058 90.512ZM112.204 88.048C112.614 88.048 112.95 88.188 113.212 88.468C113.473 88.7293 113.604 89.0653 113.604 89.476V101.572C113.604 101.983 113.473 102.328 113.212 102.608C112.95 102.869 112.614 103 112.204 103C111.812 103 111.476 102.869 111.196 102.608C110.934 102.328 110.804 101.983 110.804 101.572V99.556L111.392 99.64C111.392 99.976 111.252 100.349 110.972 100.76C110.71 101.171 110.346 101.572 109.88 101.964C109.413 102.337 108.862 102.655 108.228 102.916C107.593 103.159 106.912 103.28 106.184 103.28C104.896 103.28 103.738 102.953 102.712 102.3C101.685 101.628 100.873 100.713 100.276 99.556C99.6784 98.3987 99.3798 97.0827 99.3798 95.608C99.3798 94.096 99.6784 92.7707 100.276 91.632C100.873 90.4747 101.676 89.5693 102.684 88.916C103.71 88.2627 104.849 87.936 106.1 87.936C106.902 87.936 107.64 88.0667 108.312 88.328C109.002 88.5893 109.6 88.9253 110.104 89.336C110.608 89.7467 110.99 90.1853 111.252 90.652C111.532 91.1 111.672 91.5293 111.672 91.94L110.804 92.024V89.476C110.804 89.084 110.934 88.748 111.196 88.468C111.476 88.188 111.812 88.048 112.204 88.048ZM106.492 100.704C107.369 100.704 108.144 100.48 108.816 100.032C109.488 99.584 110.01 98.9773 110.384 98.212C110.757 97.428 110.944 96.56 110.944 95.608C110.944 94.6373 110.757 93.7693 110.384 93.004C110.01 92.2387 109.488 91.632 108.816 91.184C108.144 90.736 107.369 90.512 106.492 90.512C105.633 90.512 104.868 90.736 104.196 91.184C103.542 91.632 103.02 92.2387 102.628 93.004C102.254 93.7693 102.068 94.6373 102.068 95.608C102.068 96.56 102.254 97.428 102.628 98.212C103.02 98.9773 103.542 99.584 104.196 100.032C104.868 100.48 105.633 100.704 106.492 100.704ZM125.114 87.936C126.44 87.936 127.466 88.216 128.194 88.776C128.922 89.3173 129.426 90.0547 129.706 90.988C130.005 91.9027 130.154 92.9293 130.154 94.068V101.572C130.154 101.983 130.014 102.328 129.734 102.608C129.473 102.869 129.146 103 128.754 103C128.344 103 128.008 102.869 127.746 102.608C127.485 102.328 127.354 101.983 127.354 101.572V94.096C127.354 93.424 127.261 92.8267 127.074 92.304C126.888 91.7627 126.561 91.3333 126.094 91.016C125.646 90.68 125.012 90.512 124.19 90.512C123.425 90.512 122.753 90.68 122.174 91.016C121.596 91.3333 121.138 91.7627 120.802 92.304C120.485 92.8267 120.326 93.424 120.326 94.096V101.572C120.326 101.983 120.186 102.328 119.906 102.608C119.645 102.869 119.318 103 118.926 103C118.516 103 118.18 102.869 117.918 102.608C117.657 102.328 117.526 101.983 117.526 101.572V89.7C117.526 89.2893 117.657 88.9533 117.918 88.692C118.18 88.412 118.516 88.272 118.926 88.272C119.318 88.272 119.645 88.412 119.906 88.692C120.186 88.9533 120.326 89.2893 120.326 89.7V91.268L119.822 91.548C119.953 91.1373 120.177 90.7267 120.494 90.316C120.83 89.8867 121.232 89.4947 121.698 89.14C122.165 88.7667 122.688 88.4773 123.266 88.272C123.845 88.048 124.461 87.936 125.114 87.936ZM136.674 101.572C136.674 101.983 136.543 102.328 136.282 102.608C136.021 102.869 135.685 103 135.274 103C134.882 103 134.546 102.869 134.266 102.608C134.005 102.328 133.874 101.983 133.874 101.572V89.588C133.874 89.1773 134.005 88.8413 134.266 88.58C134.546 88.3 134.882 88.16 135.274 88.16C135.685 88.16 136.021 88.3 136.282 88.58C136.543 88.8413 136.674 89.1773 136.674 89.588V101.572ZM135.246 86.312C134.705 86.312 134.313 86.2187 134.07 86.032C133.827 85.8267 133.706 85.4907 133.706 85.024V84.576C133.706 84.1093 133.837 83.7827 134.098 83.596C134.359 83.4093 134.751 83.316 135.274 83.316C135.834 83.316 136.235 83.4187 136.478 83.624C136.721 83.8107 136.842 84.128 136.842 84.576V85.024C136.842 85.5093 136.711 85.8453 136.45 86.032C136.207 86.2187 135.806 86.312 135.246 86.312ZM146.964 87.936C147.972 87.936 148.868 88.048 149.652 88.272C150.436 88.4773 151.043 88.776 151.472 89.168C151.92 89.5413 152.144 89.98 152.144 90.484C152.144 90.8013 152.051 91.1 151.864 91.38C151.678 91.6413 151.398 91.772 151.024 91.772C150.763 91.772 150.539 91.7253 150.352 91.632C150.184 91.5387 150.026 91.4267 149.876 91.296C149.727 91.1653 149.54 91.0347 149.316 90.904C149.111 90.792 148.803 90.6987 148.392 90.624C148 90.5493 147.646 90.512 147.328 90.512C146.339 90.512 145.48 90.736 144.752 91.184C144.043 91.632 143.483 92.2387 143.072 93.004C142.68 93.7693 142.484 94.6373 142.484 95.608C142.484 96.5787 142.68 97.4467 143.072 98.212C143.483 98.9773 144.034 99.584 144.724 100.032C145.434 100.48 146.255 100.704 147.188 100.704C147.748 100.704 148.206 100.667 148.56 100.592C148.915 100.499 149.223 100.387 149.484 100.256C149.764 100.088 149.998 99.92 150.184 99.752C150.39 99.5653 150.67 99.472 151.024 99.472C151.435 99.472 151.743 99.6027 151.948 99.864C152.172 100.107 152.284 100.415 152.284 100.788C152.284 101.199 152.032 101.6 151.528 101.992C151.043 102.365 150.39 102.673 149.568 102.916C148.747 103.159 147.842 103.28 146.852 103.28C145.396 103.28 144.127 102.944 143.044 102.272C141.98 101.6 141.15 100.685 140.552 99.528C139.974 98.3707 139.684 97.064 139.684 95.608C139.684 94.1333 139.992 92.8267 140.608 91.688C141.224 90.5307 142.083 89.616 143.184 88.944C144.286 88.272 145.546 87.936 146.964 87.936ZM164.545 103C164.097 103 163.733 102.869 163.453 102.608C163.192 102.328 163.061 101.983 163.061 101.572V84.828C163.061 84.4173 163.201 84.0813 163.481 83.82C163.761 83.54 164.097 83.4 164.489 83.4H173.953C174.364 83.4 174.7 83.5307 174.961 83.792C175.241 84.0533 175.381 84.38 175.381 84.772C175.381 85.1267 175.241 85.4347 174.961 85.696C174.7 85.9573 174.364 86.088 173.953 86.088H165.777L165.973 85.808V92.052L165.805 91.716H172.693C173.104 91.716 173.44 91.8467 173.701 92.108C173.981 92.3693 174.121 92.696 174.121 93.088C174.121 93.4427 173.981 93.7507 173.701 94.012C173.44 94.2733 173.104 94.404 172.693 94.404H165.749L165.973 94.18V101.572C165.973 101.983 165.833 102.328 165.553 102.608C165.273 102.869 164.937 103 164.545 103ZM192.232 95.636C192.232 97.1293 191.905 98.4547 191.252 99.612C190.599 100.751 189.712 101.647 188.592 102.3C187.472 102.953 186.212 103.28 184.812 103.28C183.412 103.28 182.152 102.953 181.032 102.3C179.912 101.647 179.016 100.751 178.344 99.612C177.691 98.4547 177.364 97.1293 177.364 95.636C177.364 94.124 177.691 92.7987 178.344 91.66C179.016 90.5027 179.912 89.5973 181.032 88.944C182.152 88.272 183.412 87.936 184.812 87.936C186.212 87.936 187.472 88.272 188.592 88.944C189.712 89.5973 190.599 90.5027 191.252 91.66C191.905 92.7987 192.232 94.124 192.232 95.636ZM189.432 95.636C189.432 94.6093 189.227 93.7227 188.816 92.976C188.405 92.2107 187.845 91.6133 187.136 91.184C186.445 90.736 185.671 90.512 184.812 90.512C183.953 90.512 183.169 90.736 182.46 91.184C181.751 91.6133 181.191 92.2107 180.78 92.976C180.369 93.7227 180.164 94.6093 180.164 95.636C180.164 96.6253 180.369 97.5027 180.78 98.268C181.191 99.0333 181.751 99.6307 182.46 100.06C183.169 100.489 183.953 100.704 184.812 100.704C185.671 100.704 186.445 100.489 187.136 100.06C187.845 99.6307 188.405 99.0333 188.816 98.268C189.227 97.5027 189.432 96.6253 189.432 95.636ZM209.513 95.636C209.513 97.1293 209.187 98.4547 208.533 99.612C207.88 100.751 206.993 101.647 205.873 102.3C204.753 102.953 203.493 103.28 202.093 103.28C200.693 103.28 199.433 102.953 198.313 102.3C197.193 101.647 196.297 100.751 195.625 99.612C194.972 98.4547 194.645 97.1293 194.645 95.636C194.645 94.124 194.972 92.7987 195.625 91.66C196.297 90.5027 197.193 89.5973 198.313 88.944C199.433 88.272 200.693 87.936 202.093 87.936C203.493 87.936 204.753 88.272 205.873 88.944C206.993 89.5973 207.88 90.5027 208.533 91.66C209.187 92.7987 209.513 94.124 209.513 95.636ZM206.713 95.636C206.713 94.6093 206.508 93.7227 206.097 92.976C205.687 92.2107 205.127 91.6133 204.417 91.184C203.727 90.736 202.952 90.512 202.093 90.512C201.235 90.512 200.451 90.736 199.741 91.184C199.032 91.6133 198.472 92.2107 198.061 92.976C197.651 93.7227 197.445 94.6093 197.445 95.636C197.445 96.6253 197.651 97.5027 198.061 98.268C198.472 99.0333 199.032 99.6307 199.741 100.06C200.451 100.489 201.235 100.704 202.093 100.704C202.952 100.704 203.727 100.489 204.417 100.06C205.127 99.6307 205.687 99.0333 206.097 98.268C206.508 97.5027 206.713 96.6253 206.713 95.636ZM224.751 82.28C225.161 82.28 225.497 82.4107 225.759 82.672C226.02 82.9333 226.151 83.2787 226.151 83.708V101.572C226.151 101.983 226.02 102.328 225.759 102.608C225.497 102.869 225.161 103 224.751 103C224.359 103 224.023 102.869 223.743 102.608C223.481 102.328 223.351 101.983 223.351 101.572V99.556L223.939 99.584C223.939 99.92 223.799 100.303 223.519 100.732C223.257 101.143 222.893 101.544 222.427 101.936C221.96 102.328 221.409 102.655 220.775 102.916C220.14 103.159 219.459 103.28 218.731 103.28C217.443 103.28 216.285 102.953 215.259 102.3C214.232 101.628 213.42 100.723 212.823 99.584C212.225 98.4267 211.927 97.1013 211.927 95.608C211.927 94.1147 212.225 92.7987 212.823 91.66C213.42 90.5027 214.223 89.5973 215.231 88.944C216.257 88.272 217.396 87.936 218.647 87.936C219.431 87.936 220.159 88.0667 220.831 88.328C221.521 88.5893 222.119 88.9253 222.623 89.336C223.127 89.7467 223.519 90.1853 223.799 90.652C224.079 91.1 224.219 91.5293 224.219 91.94L223.351 92.024V83.708C223.351 83.2973 223.481 82.9613 223.743 82.7C224.023 82.42 224.359 82.28 224.751 82.28ZM219.039 100.704C219.935 100.704 220.709 100.48 221.363 100.032C222.035 99.584 222.557 98.9773 222.931 98.212C223.304 97.4467 223.491 96.5787 223.491 95.608C223.491 94.6373 223.304 93.7693 222.931 93.004C222.557 92.2387 222.035 91.632 221.363 91.184C220.691 90.736 219.916 90.512 219.039 90.512C218.18 90.512 217.415 90.736 216.743 91.184C216.089 91.632 215.567 92.2387 215.175 93.004C214.801 93.7693 214.615 94.6373 214.615 95.608C214.615 96.5787 214.801 97.4467 215.175 98.212C215.567 98.9773 216.089 99.584 216.743 100.032C217.415 100.48 218.18 100.704 219.039 100.704Z" fill="#253D4E"/>
<path d="M53.256 143.18C52.368 143.18 51.588 143.048 50.916 142.784C50.244 142.52 49.596 142.1 48.972 141.524C48.888 141.44 48.816 141.35 48.756 141.254C48.708 141.146 48.684 141.032 48.684 140.912C48.684 140.72 48.75 140.552 48.882 140.408C49.026 140.252 49.2 140.174 49.404 140.174C49.572 140.174 49.722 140.24 49.854 140.372C50.322 140.828 50.826 141.176 51.366 141.416C51.918 141.656 52.536 141.776 53.22 141.776C53.748 141.776 54.222 141.692 54.642 141.524C55.074 141.356 55.416 141.122 55.668 140.822C55.92 140.522 56.046 140.174 56.046 139.778C56.034 139.298 55.89 138.902 55.614 138.59C55.35 138.278 54.978 138.02 54.498 137.816C54.03 137.6 53.484 137.42 52.86 137.276C52.308 137.144 51.798 136.982 51.33 136.79C50.874 136.598 50.478 136.364 50.142 136.088C49.806 135.8 49.542 135.458 49.35 135.062C49.17 134.654 49.08 134.18 49.08 133.64C49.08 132.956 49.26 132.356 49.62 131.84C49.98 131.324 50.478 130.928 51.114 130.652C51.75 130.364 52.482 130.22 53.31 130.22C54.042 130.22 54.732 130.34 55.38 130.58C56.04 130.82 56.568 131.15 56.964 131.57C57.204 131.798 57.324 132.02 57.324 132.236C57.324 132.416 57.246 132.584 57.09 132.74C56.946 132.884 56.778 132.956 56.586 132.956C56.454 132.956 56.334 132.908 56.226 132.812C56.022 132.584 55.764 132.38 55.452 132.2C55.14 132.02 54.798 131.876 54.426 131.768C54.054 131.66 53.682 131.606 53.31 131.606C52.758 131.606 52.272 131.69 51.852 131.858C51.432 132.014 51.102 132.242 50.862 132.542C50.634 132.83 50.52 133.178 50.52 133.586C50.52 134.042 50.652 134.42 50.916 134.72C51.18 135.008 51.534 135.248 51.978 135.44C52.422 135.62 52.914 135.782 53.454 135.926C54.042 136.07 54.582 136.238 55.074 136.43C55.578 136.61 56.01 136.838 56.37 137.114C56.73 137.39 57.006 137.744 57.198 138.176C57.402 138.596 57.504 139.118 57.504 139.742C57.504 140.402 57.318 140.99 56.946 141.506C56.574 142.022 56.064 142.43 55.416 142.73C54.78 143.018 54.06 143.168 53.256 143.18ZM67.1559 133.604C67.3599 133.604 67.5279 133.676 67.6599 133.82C67.8039 133.952 67.8759 134.12 67.8759 134.324V142.262C67.8759 142.466 67.8039 142.64 67.6599 142.784C67.5279 142.928 67.3599 143 67.1559 143C66.9399 143 66.7659 142.928 66.6339 142.784C66.5019 142.64 66.4359 142.466 66.4359 142.262V140.552L66.7779 140.516C66.7779 140.78 66.6879 141.068 66.5079 141.38C66.3279 141.692 66.0819 141.986 65.7699 142.262C65.4579 142.526 65.0859 142.748 64.6539 142.928C64.2339 143.096 63.7779 143.18 63.2859 143.18C62.4699 143.18 61.7379 142.97 61.0899 142.55C60.4419 142.118 59.9259 141.536 59.5419 140.804C59.1699 140.072 58.9839 139.238 58.9839 138.302C58.9839 137.354 59.1699 136.52 59.5419 135.8C59.9259 135.068 60.4419 134.498 61.0899 134.09C61.7379 133.67 62.4579 133.46 63.2499 133.46C63.7659 133.46 64.2459 133.544 64.6899 133.712C65.1339 133.88 65.5179 134.108 65.8419 134.396C66.1779 134.684 66.4359 135.002 66.6159 135.35C66.8079 135.698 66.9039 136.046 66.9039 136.394L66.4359 136.286V134.324C66.4359 134.12 66.5019 133.952 66.6339 133.82C66.7659 133.676 66.9399 133.604 67.1559 133.604ZM63.4479 141.848C64.0479 141.848 64.5759 141.692 65.0319 141.38C65.4999 141.068 65.8599 140.648 66.1119 140.12C66.3759 139.58 66.5079 138.974 66.5079 138.302C66.5079 137.642 66.3759 137.048 66.1119 136.52C65.8599 135.98 65.4999 135.56 65.0319 135.26C64.5759 134.948 64.0479 134.792 63.4479 134.792C62.8599 134.792 62.3319 134.942 61.8639 135.242C61.4079 135.542 61.0479 135.956 60.7839 136.484C60.5199 137.012 60.3879 137.618 60.3879 138.302C60.3879 138.974 60.5139 139.58 60.7659 140.12C61.0299 140.648 61.3899 141.068 61.8459 141.38C62.3139 141.692 62.8479 141.848 63.4479 141.848ZM70.1536 133.532C70.2976 133.532 70.4356 133.574 70.5676 133.658C70.6996 133.73 70.7956 133.838 70.8556 133.982L73.8436 141.002L73.5556 141.146L76.5976 134C76.7296 133.676 76.9516 133.52 77.2636 133.532C77.4436 133.532 77.5996 133.592 77.7316 133.712C77.8636 133.832 77.9296 133.982 77.9296 134.162C77.9296 134.234 77.9176 134.306 77.8936 134.378C77.8816 134.438 77.8636 134.492 77.8396 134.54L74.3656 142.532C74.2336 142.832 74.0236 142.988 73.7356 143C73.5796 143.012 73.4296 142.982 73.2856 142.91C73.1536 142.826 73.0576 142.7 72.9976 142.532L69.5236 134.558C69.4996 134.51 69.4756 134.456 69.4516 134.396C69.4396 134.336 69.4336 134.264 69.4336 134.18C69.4336 134.024 69.4936 133.88 69.6136 133.748C69.7456 133.604 69.9256 133.532 70.1536 133.532ZM83.9085 143.18C82.9485 143.18 82.1085 142.976 81.3885 142.568C80.6685 142.16 80.1045 141.602 79.6965 140.894C79.3005 140.174 79.1025 139.346 79.1025 138.41C79.1025 137.366 79.3065 136.478 79.7145 135.746C80.1345 135.002 80.6745 134.438 81.3345 134.054C82.0065 133.658 82.7145 133.46 83.4585 133.46C84.0105 133.46 84.5445 133.562 85.0605 133.766C85.5765 133.97 86.0325 134.27 86.4285 134.666C86.8245 135.05 87.1425 135.518 87.3825 136.07C87.6225 136.61 87.7485 137.216 87.7605 137.888C87.7605 138.08 87.6885 138.242 87.5445 138.374C87.4005 138.506 87.2325 138.572 87.0405 138.572H79.9305L79.6065 137.33H86.5365L86.2485 137.582V137.186C86.2005 136.694 86.0325 136.274 85.7445 135.926C85.4685 135.566 85.1265 135.29 84.7185 135.098C84.3225 134.906 83.9025 134.81 83.4585 134.81C83.0985 134.81 82.7385 134.876 82.3785 135.008C82.0305 135.128 81.7125 135.332 81.4245 135.62C81.1485 135.896 80.9205 136.256 80.7405 136.7C80.5725 137.144 80.4885 137.678 80.4885 138.302C80.4885 138.998 80.6265 139.61 80.9025 140.138C81.1905 140.666 81.5865 141.086 82.0905 141.398C82.5945 141.698 83.1825 141.848 83.8545 141.848C84.2745 141.848 84.6405 141.794 84.9525 141.686C85.2645 141.578 85.5345 141.446 85.7625 141.29C85.9905 141.122 86.1825 140.954 86.3385 140.786C86.4945 140.678 86.6445 140.624 86.7885 140.624C86.9685 140.624 87.1125 140.684 87.2205 140.804C87.3405 140.924 87.4005 141.068 87.4005 141.236C87.4005 141.44 87.3045 141.62 87.1125 141.776C86.7765 142.148 86.3205 142.478 85.7445 142.766C85.1685 143.042 84.5565 143.18 83.9085 143.18ZM101.488 133.694C101.704 133.694 101.878 133.766 102.01 133.91C102.142 134.042 102.208 134.21 102.208 134.414V139.328C102.208 140.54 101.866 141.482 101.182 142.154C100.51 142.814 99.5678 143.144 98.3558 143.144C97.1558 143.144 96.2138 142.814 95.5298 142.154C94.8578 141.482 94.5218 140.54 94.5218 139.328V134.414C94.5218 134.21 94.5878 134.042 94.7198 133.91C94.8638 133.766 95.0378 133.694 95.2418 133.694C95.4578 133.694 95.6318 133.766 95.7638 133.91C95.8958 134.042 95.9618 134.21 95.9618 134.414V139.328C95.9618 140.144 96.1718 140.762 96.5918 141.182C97.0118 141.602 97.5998 141.812 98.3558 141.812C99.1358 141.812 99.7298 141.602 100.138 141.182C100.558 140.762 100.768 140.144 100.768 139.328V134.414C100.768 134.21 100.834 134.042 100.966 133.91C101.11 133.766 101.284 133.694 101.488 133.694ZM109.285 133.55C110.101 133.55 110.833 133.754 111.481 134.162C112.129 134.57 112.639 135.134 113.011 135.854C113.395 136.574 113.587 137.402 113.587 138.338C113.587 139.262 113.395 140.09 113.011 140.822C112.639 141.542 112.129 142.112 111.481 142.532C110.845 142.94 110.125 143.144 109.321 143.144C108.877 143.144 108.457 143.078 108.061 142.946C107.677 142.802 107.323 142.622 106.999 142.406C106.687 142.178 106.423 141.926 106.207 141.65C105.991 141.362 105.835 141.08 105.739 140.804L106.135 140.552V145.862C106.135 146.066 106.069 146.24 105.937 146.384C105.805 146.528 105.631 146.6 105.415 146.6C105.211 146.6 105.037 146.528 104.893 146.384C104.761 146.252 104.695 146.078 104.695 145.862V134.36C104.695 134.156 104.761 133.988 104.893 133.856C105.037 133.712 105.211 133.64 105.415 133.64C105.631 133.64 105.805 133.712 105.937 133.856C106.069 133.988 106.135 134.156 106.135 134.36V135.962L105.865 135.818C105.949 135.518 106.093 135.23 106.297 134.954C106.513 134.678 106.771 134.438 107.071 134.234C107.383 134.018 107.725 133.85 108.097 133.73C108.481 133.61 108.877 133.55 109.285 133.55ZM109.123 134.882C108.523 134.882 107.989 135.032 107.521 135.332C107.065 135.632 106.705 136.04 106.441 136.556C106.189 137.072 106.063 137.666 106.063 138.338C106.063 138.998 106.189 139.592 106.441 140.12C106.705 140.648 107.065 141.062 107.521 141.362C107.989 141.662 108.523 141.812 109.123 141.812C109.723 141.812 110.251 141.662 110.707 141.362C111.163 141.062 111.523 140.648 111.787 140.12C112.051 139.592 112.183 138.998 112.183 138.338C112.183 137.666 112.051 137.072 111.787 136.556C111.523 136.04 111.163 135.632 110.707 135.332C110.251 135.032 109.723 134.882 109.123 134.882ZM119.989 133.748H124.219C124.411 133.748 124.567 133.814 124.687 133.946C124.819 134.078 124.885 134.234 124.885 134.414C124.885 134.606 124.819 134.768 124.687 134.9C124.567 135.02 124.411 135.08 124.219 135.08H119.989C119.809 135.08 119.653 135.014 119.521 134.882C119.389 134.75 119.323 134.588 119.323 134.396C119.323 134.216 119.389 134.066 119.521 133.946C119.653 133.814 119.809 133.748 119.989 133.748ZM121.879 131.3C122.083 131.3 122.251 131.372 122.383 131.516C122.515 131.648 122.581 131.816 122.581 132.02V140.714C122.581 141.002 122.623 141.218 122.707 141.362C122.791 141.506 122.899 141.608 123.031 141.668C123.175 141.716 123.313 141.74 123.445 141.74C123.565 141.74 123.667 141.722 123.751 141.686C123.847 141.638 123.955 141.614 124.075 141.614C124.195 141.614 124.303 141.674 124.399 141.794C124.507 141.902 124.561 142.046 124.561 142.226C124.561 142.442 124.435 142.628 124.183 142.784C123.931 142.928 123.649 143 123.337 143C123.169 143 122.959 142.988 122.707 142.964C122.467 142.94 122.227 142.862 121.987 142.73C121.747 142.598 121.543 142.382 121.375 142.082C121.219 141.77 121.141 141.338 121.141 140.786V132.02C121.141 131.816 121.213 131.648 121.357 131.516C121.501 131.372 121.675 131.3 121.879 131.3ZM135.458 138.32C135.458 139.256 135.248 140.09 134.828 140.822C134.42 141.554 133.862 142.13 133.154 142.55C132.458 142.97 131.672 143.18 130.796 143.18C129.92 143.18 129.128 142.97 128.42 142.55C127.712 142.13 127.148 141.554 126.728 140.822C126.32 140.09 126.116 139.256 126.116 138.32C126.116 137.384 126.32 136.55 126.728 135.818C127.148 135.086 127.712 134.51 128.42 134.09C129.128 133.67 129.92 133.46 130.796 133.46C131.672 133.46 132.458 133.67 133.154 134.09C133.862 134.51 134.42 135.086 134.828 135.818C135.248 136.55 135.458 137.384 135.458 138.32ZM134.018 138.32C134.018 137.624 133.874 137.012 133.586 136.484C133.31 135.956 132.926 135.542 132.434 135.242C131.954 134.942 131.408 134.792 130.796 134.792C130.184 134.792 129.632 134.942 129.14 135.242C128.66 135.542 128.276 135.956 127.988 136.484C127.7 137.012 127.556 137.624 127.556 138.32C127.556 139.004 127.7 139.61 127.988 140.138C128.276 140.666 128.66 141.086 129.14 141.398C129.632 141.698 130.184 141.848 130.796 141.848C131.408 141.848 131.954 141.698 132.434 141.398C132.926 141.086 133.31 140.666 133.586 140.138C133.874 139.61 134.018 139.004 134.018 138.32ZM146.055 143.18C145.371 143.18 144.765 143.054 144.237 142.802C143.721 142.538 143.289 142.184 142.941 141.74C142.593 141.296 142.329 140.798 142.149 140.246C141.969 139.694 141.879 139.124 141.879 138.536C141.879 138.02 141.945 137.444 142.077 136.808C142.209 136.172 142.407 135.524 142.671 134.864C142.947 134.192 143.301 133.55 143.733 132.938C144.165 132.326 144.681 131.78 145.281 131.3C145.881 130.808 146.571 130.43 147.351 130.166C147.459 130.142 147.555 130.13 147.639 130.13C147.831 130.13 147.999 130.184 148.143 130.292C148.299 130.388 148.377 130.568 148.377 130.832C148.377 131 148.323 131.15 148.215 131.282C148.107 131.402 147.963 131.492 147.783 131.552C147.303 131.732 146.829 131.996 146.361 132.344C145.905 132.68 145.479 133.082 145.083 133.55C144.699 134.006 144.363 134.504 144.075 135.044C143.799 135.572 143.607 136.124 143.499 136.7L143.067 136.844C143.271 136.52 143.529 136.214 143.841 135.926C144.153 135.638 144.513 135.404 144.921 135.224C145.341 135.044 145.797 134.954 146.289 134.954C146.817 134.954 147.309 135.068 147.765 135.296C148.221 135.524 148.623 135.83 148.971 136.214C149.319 136.598 149.589 137.042 149.781 137.546C149.985 138.038 150.087 138.554 150.087 139.094C150.087 139.826 149.907 140.504 149.547 141.128C149.199 141.74 148.719 142.238 148.107 142.622C147.507 142.994 146.823 143.18 146.055 143.18ZM146.037 141.83C146.529 141.83 146.967 141.716 147.351 141.488C147.747 141.248 148.059 140.924 148.287 140.516C148.515 140.096 148.629 139.622 148.629 139.094C148.629 138.602 148.527 138.146 148.323 137.726C148.119 137.306 147.825 136.97 147.441 136.718C147.069 136.454 146.619 136.322 146.091 136.322C145.527 136.322 145.041 136.448 144.633 136.7C144.225 136.952 143.907 137.294 143.679 137.726C143.463 138.146 143.355 138.614 143.355 139.13C143.355 139.61 143.463 140.054 143.679 140.462C143.895 140.87 144.201 141.2 144.597 141.452C145.005 141.704 145.485 141.83 146.037 141.83ZM155.901 143.18C154.905 143.18 154.071 142.898 153.399 142.334C152.739 141.77 152.235 140.996 151.887 140.012C151.551 139.028 151.383 137.924 151.383 136.7C151.383 135.452 151.551 134.342 151.887 133.37C152.235 132.398 152.739 131.63 153.399 131.066C154.071 130.502 154.905 130.22 155.901 130.22C156.897 130.22 157.725 130.502 158.385 131.066C159.057 131.63 159.561 132.398 159.897 133.37C160.233 134.342 160.401 135.452 160.401 136.7C160.401 137.924 160.233 139.028 159.897 140.012C159.561 140.996 159.057 141.77 158.385 142.334C157.725 142.898 156.897 143.18 155.901 143.18ZM155.901 141.722C156.537 141.722 157.071 141.518 157.503 141.11C157.947 140.702 158.283 140.126 158.511 139.382C158.739 138.626 158.853 137.732 158.853 136.7C158.853 135.656 158.739 134.762 158.511 134.018C158.283 133.262 157.947 132.686 157.503 132.29C157.071 131.882 156.537 131.678 155.901 131.678C155.265 131.678 154.725 131.882 154.281 132.29C153.849 132.686 153.513 133.262 153.273 134.018C153.045 134.762 152.931 135.656 152.931 136.7C152.931 137.732 153.045 138.626 153.273 139.382C153.513 140.126 153.849 140.702 154.281 141.11C154.725 141.518 155.265 141.722 155.901 141.722ZM164.461 136.97C163.909 136.97 163.435 136.82 163.039 136.52C162.655 136.208 162.355 135.8 162.139 135.296C161.935 134.78 161.833 134.222 161.833 133.622C161.833 133.01 161.935 132.446 162.139 131.93C162.355 131.414 162.661 131.006 163.057 130.706C163.453 130.394 163.927 130.238 164.479 130.238C165.031 130.238 165.499 130.394 165.883 130.706C166.279 131.006 166.579 131.414 166.783 131.93C166.987 132.434 167.089 132.992 167.089 133.604C167.089 134.216 166.981 134.78 166.765 135.296C166.549 135.8 166.243 136.208 165.847 136.52C165.463 136.82 165.001 136.97 164.461 136.97ZM164.479 135.8C164.935 135.8 165.271 135.596 165.487 135.188C165.703 134.768 165.811 134.246 165.811 133.622C165.811 132.986 165.697 132.458 165.469 132.038C165.241 131.618 164.905 131.408 164.461 131.408C164.005 131.408 163.663 131.624 163.435 132.056C163.219 132.476 163.111 132.992 163.111 133.604C163.111 134.24 163.225 134.768 163.453 135.188C163.693 135.596 164.035 135.8 164.479 135.8ZM171.967 143.162C171.427 143.162 170.959 143.012 170.563 142.712C170.179 142.4 169.879 141.992 169.663 141.488C169.447 140.972 169.339 140.414 169.339 139.814C169.339 139.202 169.441 138.638 169.645 138.122C169.861 137.606 170.167 137.198 170.563 136.898C170.959 136.586 171.433 136.43 171.985 136.43C172.549 136.43 173.023 136.586 173.407 136.898C173.803 137.198 174.103 137.606 174.307 138.122C174.511 138.626 174.613 139.184 174.613 139.796C174.613 140.408 174.505 140.972 174.289 141.488C174.073 141.992 173.767 142.4 173.371 142.712C172.987 143.012 172.519 143.162 171.967 143.162ZM171.985 141.992C172.453 141.992 172.795 141.788 173.011 141.38C173.227 140.96 173.335 140.438 173.335 139.814C173.335 139.178 173.221 138.65 172.993 138.23C172.765 137.81 172.423 137.6 171.967 137.6C171.511 137.6 171.169 137.816 170.941 138.248C170.725 138.668 170.617 139.184 170.617 139.796C170.617 140.432 170.731 140.96 170.959 141.38C171.199 141.788 171.541 141.992 171.985 141.992ZM164.389 143.036C164.245 143.036 164.101 142.982 163.957 142.874C163.813 142.766 163.741 142.616 163.741 142.424C163.741 142.316 163.783 142.19 163.867 142.046L171.391 130.652C171.535 130.448 171.703 130.346 171.895 130.346C172.051 130.346 172.195 130.4 172.327 130.508C172.471 130.616 172.543 130.766 172.543 130.958C172.543 131.078 172.507 131.204 172.435 131.336L164.911 142.748C164.767 142.94 164.593 143.036 164.389 143.036ZM190.101 138.32C190.101 139.256 189.891 140.09 189.471 140.822C189.063 141.554 188.505 142.13 187.797 142.55C187.101 142.97 186.315 143.18 185.439 143.18C184.563 143.18 183.771 142.97 183.063 142.55C182.355 142.13 181.791 141.554 181.371 140.822C180.963 140.09 180.759 139.256 180.759 138.32C180.759 137.384 180.963 136.55 181.371 135.818C181.791 135.086 182.355 134.51 183.063 134.09C183.771 133.67 184.563 133.46 185.439 133.46C186.315 133.46 187.101 133.67 187.797 134.09C188.505 134.51 189.063 135.086 189.471 135.818C189.891 136.55 190.101 137.384 190.101 138.32ZM188.661 138.32C188.661 137.624 188.517 137.012 188.229 136.484C187.953 135.956 187.569 135.542 187.077 135.242C186.597 134.942 186.051 134.792 185.439 134.792C184.827 134.792 184.275 134.942 183.783 135.242C183.303 135.542 182.919 135.956 182.631 136.484C182.343 137.012 182.199 137.624 182.199 138.32C182.199 139.004 182.343 139.61 182.631 140.138C182.919 140.666 183.303 141.086 183.783 141.398C184.275 141.698 184.827 141.848 185.439 141.848C186.051 141.848 186.597 141.698 187.077 141.398C187.569 141.086 187.953 140.666 188.229 140.138C188.517 139.61 188.661 139.004 188.661 138.32ZM195.975 129.716C196.179 129.716 196.389 129.74 196.605 129.788C196.833 129.836 197.025 129.92 197.181 130.04C197.349 130.16 197.433 130.322 197.433 130.526C197.433 130.718 197.373 130.88 197.253 131.012C197.133 131.132 196.989 131.192 196.821 131.192C196.713 131.192 196.563 131.162 196.371 131.102C196.179 131.03 195.981 130.994 195.777 130.994C195.501 130.994 195.273 131.054 195.093 131.174C194.925 131.294 194.799 131.456 194.715 131.66C194.643 131.852 194.607 132.068 194.607 132.308V142.262C194.607 142.466 194.535 142.64 194.391 142.784C194.259 142.928 194.091 143 193.887 143C193.671 143 193.497 142.928 193.365 142.784C193.233 142.64 193.167 142.466 193.167 142.262V132.326C193.167 131.522 193.413 130.886 193.905 130.418C194.409 129.95 195.099 129.716 195.975 129.716ZM196.479 133.838C196.671 133.838 196.833 133.904 196.965 134.036C197.097 134.156 197.163 134.312 197.163 134.504C197.163 134.696 197.097 134.858 196.965 134.99C196.833 135.11 196.671 135.17 196.479 135.17H191.961C191.769 135.17 191.607 135.104 191.475 134.972C191.343 134.84 191.277 134.684 191.277 134.504C191.277 134.3 191.343 134.138 191.475 134.018C191.607 133.898 191.769 133.838 191.961 133.838H196.479ZM202.923 129.716C203.127 129.716 203.337 129.74 203.553 129.788C203.781 129.836 203.973 129.92 204.129 130.04C204.297 130.16 204.381 130.322 204.381 130.526C204.381 130.718 204.321 130.88 204.201 131.012C204.081 131.132 203.937 131.192 203.769 131.192C203.661 131.192 203.511 131.162 203.319 131.102C203.127 131.03 202.929 130.994 202.725 130.994C202.449 130.994 202.221 131.054 202.041 131.174C201.873 131.294 201.747 131.456 201.663 131.66C201.591 131.852 201.555 132.068 201.555 132.308V142.262C201.555 142.466 201.483 142.64 201.339 142.784C201.207 142.928 201.039 143 200.835 143C200.619 143 200.445 142.928 200.313 142.784C200.181 142.64 200.115 142.466 200.115 142.262V132.326C200.115 131.522 200.361 130.886 200.853 130.418C201.357 129.95 202.047 129.716 202.923 129.716ZM203.427 133.838C203.619 133.838 203.781 133.904 203.913 134.036C204.045 134.156 204.111 134.312 204.111 134.504C204.111 134.696 204.045 134.858 203.913 134.99C203.781 135.11 203.619 135.17 203.427 135.17H198.909C198.717 135.17 198.555 135.104 198.423 134.972C198.291 134.84 198.225 134.684 198.225 134.504C198.225 134.3 198.291 134.138 198.423 134.018C198.555 133.898 198.717 133.838 198.909 133.838H203.427ZM219.409 138.32C219.409 139.256 219.199 140.09 218.779 140.822C218.371 141.554 217.813 142.13 217.105 142.55C216.409 142.97 215.623 143.18 214.747 143.18C213.871 143.18 213.079 142.97 212.371 142.55C211.663 142.13 211.099 141.554 210.679 140.822C210.271 140.09 210.067 139.256 210.067 138.32C210.067 137.384 210.271 136.55 210.679 135.818C211.099 135.086 211.663 134.51 212.371 134.09C213.079 133.67 213.871 133.46 214.747 133.46C215.623 133.46 216.409 133.67 217.105 134.09C217.813 134.51 218.371 135.086 218.779 135.818C219.199 136.55 219.409 137.384 219.409 138.32ZM217.969 138.32C217.969 137.624 217.825 137.012 217.537 136.484C217.261 135.956 216.877 135.542 216.385 135.242C215.905 134.942 215.359 134.792 214.747 134.792C214.135 134.792 213.583 134.942 213.091 135.242C212.611 135.542 212.227 135.956 211.939 136.484C211.651 137.012 211.507 137.624 211.507 138.32C211.507 139.004 211.651 139.61 211.939 140.138C212.227 140.666 212.611 141.086 213.091 141.398C213.583 141.698 214.135 141.848 214.747 141.848C215.359 141.848 215.905 141.698 216.385 141.398C216.877 141.086 217.261 140.666 217.537 140.138C217.825 139.61 217.969 139.004 217.969 138.32ZM226.02 133.46C226.836 133.46 227.478 133.628 227.946 133.964C228.414 134.3 228.744 134.75 228.936 135.314C229.14 135.878 229.242 136.508 229.242 137.204V142.262C229.242 142.466 229.17 142.64 229.026 142.784C228.894 142.928 228.726 143 228.522 143C228.318 143 228.144 142.928 228 142.784C227.868 142.64 227.802 142.466 227.802 142.262V137.24C227.802 136.784 227.73 136.376 227.586 136.016C227.454 135.644 227.226 135.35 226.902 135.134C226.59 134.906 226.158 134.792 225.606 134.792C225.102 134.792 224.64 134.906 224.22 135.134C223.8 135.35 223.464 135.644 223.212 136.016C222.96 136.376 222.834 136.784 222.834 137.24V142.262C222.834 142.466 222.762 142.64 222.618 142.784C222.486 142.928 222.318 143 222.114 143C221.91 143 221.736 142.928 221.592 142.784C221.46 142.64 221.394 142.466 221.394 142.262V134.414C221.394 134.21 221.46 134.042 221.592 133.91C221.736 133.766 221.91 133.694 222.114 133.694C222.33 133.694 222.504 133.766 222.636 133.91C222.768 134.042 222.834 134.21 222.834 134.414V135.692L222.474 136.088C222.534 135.776 222.672 135.464 222.888 135.152C223.104 134.828 223.374 134.54 223.698 134.288C224.022 134.036 224.382 133.838 224.778 133.694C225.174 133.538 225.588 133.46 226.02 133.46ZM243.469 133.55C243.673 133.55 243.841 133.622 243.973 133.766C244.117 133.898 244.189 134.066 244.189 134.27V142.118C244.189 143.126 243.991 143.96 243.595 144.62C243.199 145.292 242.665 145.79 241.993 146.114C241.333 146.438 240.583 146.6 239.743 146.6C239.275 146.6 238.825 146.552 238.393 146.456C237.961 146.36 237.607 146.234 237.331 146.078C237.103 145.97 236.941 145.832 236.845 145.664C236.761 145.508 236.749 145.34 236.809 145.16C236.893 144.944 237.013 144.794 237.169 144.71C237.337 144.626 237.511 144.626 237.691 144.71C237.883 144.794 238.159 144.908 238.519 145.052C238.891 145.208 239.305 145.286 239.761 145.286C240.385 145.286 240.919 145.166 241.363 144.926C241.807 144.686 242.149 144.332 242.389 143.864C242.629 143.408 242.749 142.838 242.749 142.154V140.876L242.965 141.326C242.773 141.698 242.515 142.022 242.191 142.298C241.867 142.574 241.495 142.79 241.075 142.946C240.655 143.102 240.193 143.18 239.689 143.18C239.005 143.18 238.423 143.036 237.943 142.748C237.475 142.448 237.115 142.04 236.863 141.524C236.623 140.996 236.503 140.39 236.503 139.706V134.27C236.503 134.066 236.569 133.898 236.701 133.766C236.845 133.622 237.019 133.55 237.223 133.55C237.439 133.55 237.613 133.622 237.745 133.766C237.877 133.898 237.943 134.066 237.943 134.27V139.382C237.943 140.198 238.123 140.816 238.483 141.236C238.843 141.644 239.401 141.848 240.157 141.848C240.637 141.848 241.069 141.74 241.453 141.524C241.849 141.308 242.161 141.014 242.389 140.642C242.629 140.258 242.749 139.838 242.749 139.382V134.27C242.749 134.066 242.815 133.898 242.947 133.766C243.079 133.622 243.253 133.55 243.469 133.55ZM255.427 138.32C255.427 139.256 255.217 140.09 254.797 140.822C254.389 141.554 253.831 142.13 253.123 142.55C252.427 142.97 251.641 143.18 250.765 143.18C249.889 143.18 249.097 142.97 248.389 142.55C247.681 142.13 247.117 141.554 246.697 140.822C246.289 140.09 246.085 139.256 246.085 138.32C246.085 137.384 246.289 136.55 246.697 135.818C247.117 135.086 247.681 134.51 248.389 134.09C249.097 133.67 249.889 133.46 250.765 133.46C251.641 133.46 252.427 133.67 253.123 134.09C253.831 134.51 254.389 135.086 254.797 135.818C255.217 136.55 255.427 137.384 255.427 138.32ZM253.987 138.32C253.987 137.624 253.843 137.012 253.555 136.484C253.279 135.956 252.895 135.542 252.403 135.242C251.923 134.942 251.377 134.792 250.765 134.792C250.153 134.792 249.601 134.942 249.109 135.242C248.629 135.542 248.245 135.956 247.957 136.484C247.669 137.012 247.525 137.624 247.525 138.32C247.525 139.004 247.669 139.61 247.957 140.138C248.245 140.666 248.629 141.086 249.109 141.398C249.601 141.698 250.153 141.848 250.765 141.848C251.377 141.848 251.923 141.698 252.403 141.398C252.895 141.086 253.279 140.666 253.555 140.138C253.843 139.61 253.987 139.004 253.987 138.32ZM264.379 133.694C264.595 133.694 264.769 133.766 264.901 133.91C265.033 134.042 265.099 134.21 265.099 134.414V139.328C265.099 140.54 264.757 141.482 264.073 142.154C263.401 142.814 262.459 143.144 261.247 143.144C260.047 143.144 259.105 142.814 258.421 142.154C257.749 141.482 257.413 140.54 257.413 139.328V134.414C257.413 134.21 257.479 134.042 257.611 133.91C257.755 133.766 257.929 133.694 258.133 133.694C258.349 133.694 258.523 133.766 258.655 133.91C258.787 134.042 258.853 134.21 258.853 134.414V139.328C258.853 140.144 259.063 140.762 259.483 141.182C259.903 141.602 260.491 141.812 261.247 141.812C262.027 141.812 262.621 141.602 263.029 141.182C263.449 140.762 263.659 140.144 263.659 139.328V134.414C263.659 134.21 263.725 134.042 263.857 133.91C264.001 133.766 264.175 133.694 264.379 133.694ZM268.306 143C268.102 143 267.928 142.928 267.784 142.784C267.652 142.64 267.586 142.466 267.586 142.262V134.414C267.586 134.21 267.652 134.042 267.784 133.91C267.928 133.766 268.102 133.694 268.306 133.694C268.522 133.694 268.696 133.766 268.828 133.91C268.96 134.042 269.026 134.21 269.026 134.414V136.79L268.81 136.412C268.882 136.04 269.008 135.68 269.188 135.332C269.38 134.972 269.62 134.654 269.908 134.378C270.196 134.09 270.526 133.868 270.898 133.712C271.27 133.544 271.678 133.46 272.122 133.46C272.386 133.46 272.626 133.526 272.842 133.658C273.07 133.778 273.184 133.952 273.184 134.18C273.184 134.432 273.118 134.618 272.986 134.738C272.854 134.858 272.704 134.918 272.536 134.918C272.38 134.918 272.23 134.888 272.086 134.828C271.942 134.756 271.762 134.72 271.546 134.72C271.246 134.72 270.946 134.804 270.646 134.972C270.358 135.128 270.088 135.356 269.836 135.656C269.596 135.956 269.398 136.298 269.242 136.682C269.098 137.054 269.026 137.456 269.026 137.888V142.262C269.026 142.466 268.954 142.64 268.81 142.784C268.678 142.928 268.51 143 268.306 143ZM53.22 152.716C53.424 152.716 53.634 152.74 53.85 152.788C54.078 152.836 54.27 152.92 54.426 153.04C54.594 153.16 54.678 153.322 54.678 153.526C54.678 153.718 54.618 153.88 54.498 154.012C54.378 154.132 54.234 154.192 54.066 154.192C53.958 154.192 53.808 154.162 53.616 154.102C53.424 154.03 53.226 153.994 53.022 153.994C52.746 153.994 52.518 154.054 52.338 154.174C52.17 154.294 52.044 154.456 51.96 154.66C51.888 154.852 51.852 155.068 51.852 155.308V165.262C51.852 165.466 51.78 165.64 51.636 165.784C51.504 165.928 51.336 166 51.132 166C50.916 166 50.742 165.928 50.61 165.784C50.478 165.64 50.412 165.466 50.412 165.262V155.326C50.412 154.522 50.658 153.886 51.15 153.418C51.654 152.95 52.344 152.716 53.22 152.716ZM53.724 156.838C53.916 156.838 54.078 156.904 54.21 157.036C54.342 157.156 54.408 157.312 54.408 157.504C54.408 157.696 54.342 157.858 54.21 157.99C54.078 158.11 53.916 158.17 53.724 158.17H49.206C49.014 158.17 48.852 158.104 48.72 157.972C48.588 157.84 48.522 157.684 48.522 157.504C48.522 157.3 48.588 157.138 48.72 157.018C48.852 156.898 49.014 156.838 49.206 156.838H53.724ZM57.666 165.262C57.666 165.466 57.594 165.64 57.45 165.784C57.318 165.928 57.15 166 56.946 166C56.73 166 56.556 165.928 56.424 165.784C56.292 165.64 56.226 165.466 56.226 165.262V157.27C56.226 157.066 56.292 156.898 56.424 156.766C56.568 156.622 56.742 156.55 56.946 156.55C57.15 156.55 57.318 156.622 57.45 156.766C57.594 156.898 57.666 157.066 57.666 157.27V165.262ZM56.928 155.344C56.628 155.344 56.406 155.284 56.262 155.164C56.118 155.044 56.046 154.858 56.046 154.606V154.354C56.046 154.102 56.124 153.916 56.28 153.796C56.436 153.676 56.658 153.616 56.946 153.616C57.234 153.616 57.45 153.676 57.594 153.796C57.738 153.916 57.81 154.102 57.81 154.354V154.606C57.81 154.858 57.732 155.044 57.576 155.164C57.432 155.284 57.216 155.344 56.928 155.344ZM60.8056 166C60.6016 166 60.4276 165.928 60.2836 165.784C60.1516 165.64 60.0856 165.466 60.0856 165.262V157.414C60.0856 157.21 60.1516 157.042 60.2836 156.91C60.4276 156.766 60.6016 156.694 60.8056 156.694C61.0216 156.694 61.1956 156.766 61.3276 156.91C61.4596 157.042 61.5256 157.21 61.5256 157.414V159.79L61.3096 159.412C61.3816 159.04 61.5076 158.68 61.6876 158.332C61.8796 157.972 62.1196 157.654 62.4076 157.378C62.6956 157.09 63.0256 156.868 63.3976 156.712C63.7696 156.544 64.1776 156.46 64.6216 156.46C64.8856 156.46 65.1256 156.526 65.3416 156.658C65.5696 156.778 65.6836 156.952 65.6836 157.18C65.6836 157.432 65.6176 157.618 65.4856 157.738C65.3536 157.858 65.2036 157.918 65.0356 157.918C64.8796 157.918 64.7296 157.888 64.5856 157.828C64.4416 157.756 64.2616 157.72 64.0456 157.72C63.7456 157.72 63.4456 157.804 63.1456 157.972C62.8576 158.128 62.5876 158.356 62.3356 158.656C62.0956 158.956 61.8976 159.298 61.7416 159.682C61.5976 160.054 61.5256 160.456 61.5256 160.888V165.262C61.5256 165.466 61.4536 165.64 61.3096 165.784C61.1776 165.928 61.0096 166 60.8056 166ZM66.6082 164.524C66.5002 164.368 66.4522 164.206 66.4642 164.038C66.4762 163.858 66.5782 163.702 66.7702 163.57C66.8902 163.486 67.0282 163.45 67.1842 163.462C67.3522 163.474 67.5022 163.552 67.6342 163.696C67.9702 164.092 68.3542 164.41 68.7862 164.65C69.2182 164.878 69.7462 164.992 70.3702 164.992C70.6582 164.98 70.9462 164.932 71.2342 164.848C71.5222 164.764 71.7622 164.62 71.9542 164.416C72.1582 164.2 72.2602 163.918 72.2602 163.57C72.2602 163.234 72.1582 162.97 71.9542 162.778C71.7502 162.574 71.4862 162.412 71.1622 162.292C70.8382 162.16 70.4842 162.046 70.1002 161.95C69.7042 161.842 69.3142 161.722 68.9302 161.59C68.5462 161.446 68.1982 161.272 67.8862 161.068C67.5862 160.852 67.3402 160.588 67.1482 160.276C66.9682 159.952 66.8782 159.562 66.8782 159.106C66.8782 158.566 67.0222 158.098 67.3102 157.702C67.6102 157.306 68.0062 157 68.4982 156.784C69.0022 156.568 69.5482 156.46 70.1362 156.46C70.4722 156.46 70.8202 156.502 71.1802 156.586C71.5522 156.658 71.9122 156.79 72.2602 156.982C72.6082 157.162 72.9142 157.414 73.1782 157.738C73.2862 157.858 73.3462 158.008 73.3582 158.188C73.3702 158.368 73.2922 158.53 73.1242 158.674C72.9922 158.77 72.8422 158.812 72.6742 158.8C72.5182 158.788 72.3862 158.728 72.2782 158.62C72.0262 158.32 71.7082 158.092 71.3242 157.936C70.9522 157.768 70.5382 157.684 70.0822 157.684C69.7942 157.684 69.5122 157.726 69.2362 157.81C68.9602 157.894 68.7262 158.038 68.5342 158.242C68.3542 158.434 68.2642 158.704 68.2642 159.052C68.2762 159.376 68.3842 159.64 68.5882 159.844C68.7922 160.048 69.0682 160.216 69.4162 160.348C69.7642 160.468 70.1482 160.588 70.5682 160.708C70.9522 160.804 71.3182 160.918 71.6662 161.05C72.0262 161.17 72.3502 161.332 72.6382 161.536C72.9262 161.74 73.1542 162.004 73.3222 162.328C73.4902 162.64 73.5742 163.036 73.5742 163.516C73.5742 164.068 73.4182 164.548 73.1062 164.956C72.7942 165.352 72.3802 165.658 71.8642 165.874C71.3602 166.078 70.8142 166.18 70.2262 166.18C69.5662 166.18 68.9122 166.054 68.2642 165.802C67.6282 165.55 67.0762 165.124 66.6082 164.524ZM75.1156 156.748H79.3456C79.5376 156.748 79.6936 156.814 79.8136 156.946C79.9456 157.078 80.0116 157.234 80.0116 157.414C80.0116 157.606 79.9456 157.768 79.8136 157.9C79.6936 158.02 79.5376 158.08 79.3456 158.08H75.1156C74.9356 158.08 74.7796 158.014 74.6476 157.882C74.5156 157.75 74.4496 157.588 74.4496 157.396C74.4496 157.216 74.5156 157.066 74.6476 156.946C74.7796 156.814 74.9356 156.748 75.1156 156.748ZM77.0056 154.3C77.2096 154.3 77.3776 154.372 77.5096 154.516C77.6416 154.648 77.7076 154.816 77.7076 155.02V163.714C77.7076 164.002 77.7496 164.218 77.8336 164.362C77.9176 164.506 78.0256 164.608 78.1576 164.668C78.3016 164.716 78.4396 164.74 78.5716 164.74C78.6916 164.74 78.7936 164.722 78.8776 164.686C78.9736 164.638 79.0816 164.614 79.2016 164.614C79.3216 164.614 79.4296 164.674 79.5256 164.794C79.6336 164.902 79.6876 165.046 79.6876 165.226C79.6876 165.442 79.5616 165.628 79.3096 165.784C79.0576 165.928 78.7756 166 78.4636 166C78.2956 166 78.0856 165.988 77.8336 165.964C77.5936 165.94 77.3536 165.862 77.1136 165.73C76.8736 165.598 76.6696 165.382 76.5016 165.082C76.3456 164.77 76.2676 164.338 76.2676 163.786V155.02C76.2676 154.816 76.3396 154.648 76.4836 154.516C76.6276 154.372 76.8016 154.3 77.0056 154.3ZM95.4497 161.32C95.4497 162.256 95.2397 163.09 94.8197 163.822C94.4117 164.554 93.8537 165.13 93.1457 165.55C92.4497 165.97 91.6637 166.18 90.7877 166.18C89.9117 166.18 89.1197 165.97 88.4117 165.55C87.7037 165.13 87.1397 164.554 86.7197 163.822C86.3117 163.09 86.1077 162.256 86.1077 161.32C86.1077 160.384 86.3117 159.55 86.7197 158.818C87.1397 158.086 87.7037 157.51 88.4117 157.09C89.1197 156.67 89.9117 156.46 90.7877 156.46C91.6637 156.46 92.4497 156.67 93.1457 157.09C93.8537 157.51 94.4117 158.086 94.8197 158.818C95.2397 159.55 95.4497 160.384 95.4497 161.32ZM94.0097 161.32C94.0097 160.624 93.8657 160.012 93.5777 159.484C93.3017 158.956 92.9177 158.542 92.4257 158.242C91.9457 157.942 91.3997 157.792 90.7877 157.792C90.1757 157.792 89.6237 157.942 89.1317 158.242C88.6517 158.542 88.2677 158.956 87.9797 159.484C87.6917 160.012 87.5477 160.624 87.5477 161.32C87.5477 162.004 87.6917 162.61 87.9797 163.138C88.2677 163.666 88.6517 164.086 89.1317 164.398C89.6237 164.698 90.1757 164.848 90.7877 164.848C91.3997 164.848 91.9457 164.698 92.4257 164.398C92.9177 164.086 93.3017 163.666 93.5777 163.138C93.8657 162.61 94.0097 162.004 94.0097 161.32ZM98.1556 166C97.9516 166 97.7776 165.928 97.6336 165.784C97.5016 165.64 97.4356 165.466 97.4356 165.262V157.414C97.4356 157.21 97.5016 157.042 97.6336 156.91C97.7776 156.766 97.9516 156.694 98.1556 156.694C98.3716 156.694 98.5456 156.766 98.6776 156.91C98.8096 157.042 98.8756 157.21 98.8756 157.414V159.79L98.6596 159.412C98.7316 159.04 98.8576 158.68 99.0376 158.332C99.2296 157.972 99.4696 157.654 99.7576 157.378C100.046 157.09 100.376 156.868 100.748 156.712C101.12 156.544 101.528 156.46 101.972 156.46C102.236 156.46 102.476 156.526 102.692 156.658C102.92 156.778 103.034 156.952 103.034 157.18C103.034 157.432 102.968 157.618 102.836 157.738C102.704 157.858 102.554 157.918 102.386 157.918C102.23 157.918 102.08 157.888 101.936 157.828C101.792 157.756 101.612 157.72 101.396 157.72C101.096 157.72 100.796 157.804 100.496 157.972C100.208 158.128 99.9376 158.356 99.6856 158.656C99.4456 158.956 99.2476 159.298 99.0916 159.682C98.9476 160.054 98.8756 160.456 98.8756 160.888V165.262C98.8756 165.466 98.8036 165.64 98.6596 165.784C98.5276 165.928 98.3596 166 98.1556 166ZM111.744 152.68C111.948 152.68 112.116 152.752 112.248 152.896C112.392 153.028 112.464 153.196 112.464 153.4V165.262C112.464 165.466 112.392 165.64 112.248 165.784C112.116 165.928 111.948 166 111.744 166C111.528 166 111.354 165.928 111.222 165.784C111.09 165.64 111.024 165.466 111.024 165.262V163.552L111.366 163.426C111.366 163.714 111.276 164.02 111.096 164.344C110.916 164.656 110.67 164.95 110.358 165.226C110.046 165.502 109.674 165.73 109.242 165.91C108.822 166.09 108.366 166.18 107.874 166.18C107.07 166.18 106.338 165.97 105.678 165.55C105.03 165.13 104.514 164.554 104.13 163.822C103.758 163.09 103.572 162.256 103.572 161.32C103.572 160.372 103.758 159.532 104.13 158.8C104.514 158.068 105.03 157.498 105.678 157.09C106.326 156.67 107.046 156.46 107.838 156.46C108.342 156.46 108.816 156.544 109.26 156.712C109.704 156.88 110.088 157.108 110.412 157.396C110.748 157.684 111.012 158.002 111.204 158.35C111.396 158.698 111.492 159.046 111.492 159.394L111.024 159.286V153.4C111.024 153.196 111.09 153.028 111.222 152.896C111.354 152.752 111.528 152.68 111.744 152.68ZM108.036 164.848C108.636 164.848 109.164 164.698 109.62 164.398C110.088 164.086 110.448 163.666 110.7 163.138C110.964 162.598 111.096 161.992 111.096 161.32C111.096 160.636 110.964 160.03 110.7 159.502C110.448 158.974 110.088 158.56 109.62 158.26C109.164 157.948 108.636 157.792 108.036 157.792C107.448 157.792 106.92 157.948 106.452 158.26C105.996 158.56 105.636 158.974 105.372 159.502C105.108 160.03 104.976 160.636 104.976 161.32C104.976 161.98 105.108 162.58 105.372 163.12C105.636 163.648 105.996 164.068 106.452 164.38C106.92 164.692 107.448 164.848 108.036 164.848ZM119.255 166.18C118.295 166.18 117.455 165.976 116.735 165.568C116.015 165.16 115.451 164.602 115.043 163.894C114.647 163.174 114.449 162.346 114.449 161.41C114.449 160.366 114.653 159.478 115.061 158.746C115.481 158.002 116.021 157.438 116.681 157.054C117.353 156.658 118.061 156.46 118.805 156.46C119.357 156.46 119.891 156.562 120.407 156.766C120.923 156.97 121.379 157.27 121.775 157.666C122.171 158.05 122.489 158.518 122.729 159.07C122.969 159.61 123.095 160.216 123.107 160.888C123.107 161.08 123.035 161.242 122.891 161.374C122.747 161.506 122.579 161.572 122.387 161.572H115.277L114.953 160.33H121.883L121.595 160.582V160.186C121.547 159.694 121.379 159.274 121.091 158.926C120.815 158.566 120.473 158.29 120.065 158.098C119.669 157.906 119.249 157.81 118.805 157.81C118.445 157.81 118.085 157.876 117.725 158.008C117.377 158.128 117.059 158.332 116.771 158.62C116.495 158.896 116.267 159.256 116.087 159.7C115.919 160.144 115.835 160.678 115.835 161.302C115.835 161.998 115.973 162.61 116.249 163.138C116.537 163.666 116.933 164.086 117.437 164.398C117.941 164.698 118.529 164.848 119.201 164.848C119.621 164.848 119.987 164.794 120.299 164.686C120.611 164.578 120.881 164.446 121.109 164.29C121.337 164.122 121.529 163.954 121.685 163.786C121.841 163.678 121.991 163.624 122.135 163.624C122.315 163.624 122.459 163.684 122.567 163.804C122.687 163.924 122.747 164.068 122.747 164.236C122.747 164.44 122.651 164.62 122.459 164.776C122.123 165.148 121.667 165.478 121.091 165.766C120.515 166.042 119.903 166.18 119.255 166.18ZM125.811 166C125.607 166 125.433 165.928 125.289 165.784C125.157 165.64 125.091 165.466 125.091 165.262V157.414C125.091 157.21 125.157 157.042 125.289 156.91C125.433 156.766 125.607 156.694 125.811 156.694C126.027 156.694 126.201 156.766 126.333 156.91C126.465 157.042 126.531 157.21 126.531 157.414V159.79L126.315 159.412C126.387 159.04 126.513 158.68 126.693 158.332C126.885 157.972 127.125 157.654 127.413 157.378C127.701 157.09 128.031 156.868 128.403 156.712C128.775 156.544 129.183 156.46 129.627 156.46C129.891 156.46 130.131 156.526 130.347 156.658C130.575 156.778 130.689 156.952 130.689 157.18C130.689 157.432 130.623 157.618 130.491 157.738C130.359 157.858 130.209 157.918 130.041 157.918C129.885 157.918 129.735 157.888 129.591 157.828C129.447 157.756 129.267 157.72 129.051 157.72C128.751 157.72 128.451 157.804 128.151 157.972C127.863 158.128 127.593 158.356 127.341 158.656C127.101 158.956 126.903 159.298 126.747 159.682C126.603 160.054 126.531 160.456 126.531 160.888V165.262C126.531 165.466 126.459 165.64 126.315 165.784C126.183 165.928 126.015 166 125.811 166Z" fill="#838383"/>
<path d="M48 214H187C188.886 214 189.828 214 190.414 214.586C191 215.172 191 216.114 191 218V262C191 263.886 191 264.828 190.414 265.414C189.828 266 188.886 266 187 266H48V214Z" fill="#3BB77E"/>
<path d="M76.004 240.4C76.004 241.211 75.8707 241.968 75.604 242.672C75.3373 243.365 74.9587 243.973 74.468 244.496C73.988 245.019 73.4173 245.429 72.756 245.728C72.0947 246.016 71.3693 246.16 70.58 246.16C69.8013 246.16 69.0813 246.016 68.42 245.728C67.7587 245.429 67.1827 245.019 66.692 244.496C66.212 243.973 65.8387 243.365 65.572 242.672C65.316 241.968 65.188 241.211 65.188 240.4C65.188 239.589 65.316 238.837 65.572 238.144C65.8387 237.44 66.212 236.827 66.692 236.304C67.1827 235.781 67.7587 235.376 68.42 235.088C69.0813 234.789 69.8013 234.64 70.58 234.64C71.3693 234.64 72.0947 234.789 72.756 235.088C73.4173 235.376 73.988 235.781 74.468 236.304C74.9587 236.827 75.3373 237.44 75.604 238.144C75.8707 238.837 76.004 239.589 76.004 240.4ZM74.276 240.4C74.276 239.611 74.116 238.901 73.796 238.272C73.4867 237.643 73.0547 237.147 72.5 236.784C71.9453 236.421 71.3053 236.24 70.58 236.24C69.8653 236.24 69.2307 236.421 68.676 236.784C68.1213 237.147 67.6893 237.643 67.38 238.272C67.0707 238.891 66.916 239.6 66.916 240.4C66.916 241.189 67.0707 241.899 67.38 242.528C67.6893 243.157 68.1213 243.653 68.676 244.016C69.2307 244.379 69.8653 244.56 70.58 244.56C71.3053 244.56 71.9453 244.379 72.5 244.016C73.0547 243.653 73.4867 243.157 73.796 242.528C74.116 241.899 74.276 241.189 74.276 240.4ZM78.5919 246C78.3572 246 78.1652 245.925 78.0159 245.776C77.8665 245.616 77.7919 245.419 77.7919 245.184V238.4C77.7919 238.165 77.8665 237.973 78.0159 237.824C78.1652 237.664 78.3572 237.584 78.5919 237.584C78.8159 237.584 79.0025 237.664 79.1519 237.824C79.3119 237.973 79.3919 238.165 79.3919 238.4V240.192L79.2319 239.504C79.3172 239.205 79.4452 238.928 79.6159 238.672C79.7972 238.416 80.0105 238.192 80.2559 238C80.5012 237.808 80.7732 237.659 81.0719 237.552C81.3812 237.445 81.7012 237.392 82.0319 237.392C82.3092 237.392 82.5492 237.467 82.7519 237.616C82.9545 237.765 83.0559 237.952 83.0559 238.176C83.0559 238.464 82.9812 238.677 82.8319 238.816C82.6825 238.944 82.5172 239.008 82.3359 239.008C82.1759 239.008 82.0212 238.976 81.8719 238.912C81.7225 238.837 81.5465 238.8 81.3439 238.8C81.1199 238.8 80.8905 238.859 80.6559 238.976C80.4212 239.093 80.2079 239.269 80.0159 239.504C79.8239 239.728 79.6692 239.995 79.5519 240.304C79.4452 240.613 79.3919 240.96 79.3919 241.344V245.184C79.3919 245.419 79.3119 245.616 79.1519 245.776C79.0025 245.925 78.8159 246 78.5919 246ZM91.016 234.16C91.2507 234.16 91.4427 234.235 91.592 234.384C91.7413 234.533 91.816 234.731 91.816 234.976V245.184C91.816 245.419 91.7413 245.616 91.592 245.776C91.4427 245.925 91.2507 246 91.016 246C90.792 246 90.6 245.925 90.44 245.776C90.2907 245.616 90.216 245.419 90.216 245.184V244.032L90.552 244.048C90.552 244.24 90.472 244.459 90.312 244.704C90.1627 244.939 89.9547 245.168 89.688 245.392C89.4213 245.616 89.1067 245.803 88.744 245.952C88.3813 246.091 87.992 246.16 87.576 246.16C86.84 246.16 86.1787 245.973 85.592 245.6C85.0053 245.216 84.5413 244.699 84.2 244.048C83.8587 243.387 83.688 242.629 83.688 241.776C83.688 240.923 83.8587 240.171 84.2 239.52C84.5413 238.859 85 238.341 85.576 237.968C86.1627 237.584 86.8133 237.392 87.528 237.392C87.976 237.392 88.392 237.467 88.776 237.616C89.1707 237.765 89.512 237.957 89.8 238.192C90.088 238.427 90.312 238.677 90.472 238.944C90.632 239.2 90.712 239.445 90.712 239.68L90.216 239.728V234.976C90.216 234.741 90.2907 234.549 90.44 234.4C90.6 234.24 90.792 234.16 91.016 234.16ZM87.752 244.688C88.264 244.688 88.7067 244.56 89.08 244.304C89.464 244.048 89.7627 243.701 89.976 243.264C90.1893 242.827 90.296 242.331 90.296 241.776C90.296 241.221 90.1893 240.725 89.976 240.288C89.7627 239.851 89.464 239.504 89.08 239.248C88.696 238.992 88.2533 238.864 87.752 238.864C87.2613 238.864 86.824 238.992 86.44 239.248C86.0667 239.504 85.768 239.851 85.544 240.288C85.3307 240.725 85.224 241.221 85.224 241.776C85.224 242.331 85.3307 242.827 85.544 243.264C85.768 243.701 86.0667 244.048 86.44 244.304C86.824 244.56 87.2613 244.688 87.752 244.688ZM97.9775 246.16C97.0922 246.16 96.3242 245.979 95.6735 245.616C95.0228 245.243 94.5162 244.736 94.1535 244.096C93.8015 243.445 93.6255 242.704 93.6255 241.872C93.6255 240.933 93.8122 240.133 94.1855 239.472C94.5695 238.8 95.0655 238.288 95.6735 237.936C96.2815 237.573 96.9268 237.392 97.6095 237.392C98.1322 237.392 98.6282 237.499 99.0975 237.712C99.5668 237.915 99.9828 238.203 100.346 238.576C100.719 238.939 101.012 239.371 101.226 239.872C101.439 240.363 101.551 240.901 101.562 241.488C101.551 241.701 101.466 241.877 101.306 242.016C101.146 242.155 100.959 242.224 100.746 242.224H94.5215L94.1375 240.864H100.154L99.8495 241.152V240.752C99.8282 240.379 99.7055 240.053 99.4815 239.776C99.2575 239.488 98.9802 239.269 98.6495 239.12C98.3188 238.96 97.9722 238.88 97.6095 238.88C97.2895 238.88 96.9802 238.933 96.6815 239.04C96.3935 239.136 96.1322 239.296 95.8975 239.52C95.6735 239.744 95.4922 240.043 95.3535 240.416C95.2255 240.779 95.1615 241.232 95.1615 241.776C95.1615 242.363 95.2842 242.875 95.5295 243.312C95.7748 243.749 96.1055 244.091 96.5215 244.336C96.9375 244.571 97.3962 244.688 97.8975 244.688C98.2922 244.688 98.6175 244.651 98.8735 244.576C99.1295 244.491 99.3428 244.389 99.5135 244.272C99.6842 244.155 99.8335 244.043 99.9615 243.936C100.122 243.84 100.282 243.792 100.442 243.792C100.634 243.792 100.794 243.861 100.922 244C101.05 244.128 101.114 244.283 101.114 244.464C101.114 244.699 100.996 244.912 100.762 245.104C100.474 245.381 100.074 245.627 99.5615 245.84C99.0602 246.053 98.5322 246.16 97.9775 246.16ZM104.17 246C103.935 246 103.743 245.925 103.594 245.776C103.445 245.616 103.37 245.419 103.37 245.184V238.4C103.37 238.165 103.445 237.973 103.594 237.824C103.743 237.664 103.935 237.584 104.17 237.584C104.394 237.584 104.581 237.664 104.73 237.824C104.89 237.973 104.97 238.165 104.97 238.4V240.192L104.81 239.504C104.895 239.205 105.023 238.928 105.194 238.672C105.375 238.416 105.589 238.192 105.834 238C106.079 237.808 106.351 237.659 106.65 237.552C106.959 237.445 107.279 237.392 107.61 237.392C107.887 237.392 108.127 237.467 108.33 237.616C108.533 237.765 108.634 237.952 108.634 238.176C108.634 238.464 108.559 238.677 108.41 238.816C108.261 238.944 108.095 239.008 107.914 239.008C107.754 239.008 107.599 238.976 107.45 238.912C107.301 238.837 107.125 238.8 106.922 238.8C106.698 238.8 106.469 238.859 106.234 238.976C105.999 239.093 105.786 239.269 105.594 239.504C105.402 239.728 105.247 239.995 105.13 240.304C105.023 240.613 104.97 240.96 104.97 241.344V245.184C104.97 245.419 104.89 245.616 104.73 245.776C104.581 245.925 104.394 246 104.17 246ZM123.087 234.8C123.3 234.8 123.471 234.875 123.599 235.024C123.737 235.163 123.807 235.339 123.807 235.552V245.184C123.807 245.419 123.727 245.616 123.567 245.776C123.417 245.925 123.225 246 122.991 246C122.884 246 122.767 245.979 122.639 245.936C122.521 245.893 122.431 245.835 122.367 245.76L115.791 237.232L116.159 237.024V245.264C116.159 245.467 116.089 245.643 115.951 245.792C115.812 245.931 115.636 246 115.423 246C115.199 246 115.017 245.931 114.879 245.792C114.751 245.643 114.687 245.467 114.687 245.264V235.616C114.687 235.371 114.767 235.173 114.927 235.024C115.087 234.875 115.279 234.8 115.503 234.8C115.62 234.8 115.743 234.827 115.871 234.88C116.009 234.923 116.111 234.992 116.175 235.088L122.591 243.44L122.351 243.664V235.552C122.351 235.339 122.42 235.163 122.559 235.024C122.697 234.875 122.873 234.8 123.087 234.8ZM134.309 241.792C134.309 242.645 134.122 243.403 133.749 244.064C133.376 244.715 132.869 245.227 132.229 245.6C131.589 245.973 130.869 246.16 130.069 246.16C129.269 246.16 128.549 245.973 127.909 245.6C127.269 245.227 126.757 244.715 126.373 244.064C126 243.403 125.813 242.645 125.813 241.792C125.813 240.928 126 240.171 126.373 239.52C126.757 238.859 127.269 238.341 127.909 237.968C128.549 237.584 129.269 237.392 130.069 237.392C130.869 237.392 131.589 237.584 132.229 237.968C132.869 238.341 133.376 238.859 133.749 239.52C134.122 240.171 134.309 240.928 134.309 241.792ZM132.709 241.792C132.709 241.205 132.592 240.699 132.357 240.272C132.122 239.835 131.802 239.493 131.397 239.248C131.002 238.992 130.56 238.864 130.069 238.864C129.578 238.864 129.13 238.992 128.725 239.248C128.32 239.493 128 239.835 127.765 240.272C127.53 240.699 127.413 241.205 127.413 241.792C127.413 242.357 127.53 242.859 127.765 243.296C128 243.733 128.32 244.075 128.725 244.32C129.13 244.565 129.578 244.688 130.069 244.688C130.56 244.688 131.002 244.565 131.397 244.32C131.802 244.075 132.122 243.733 132.357 243.296C132.592 242.859 132.709 242.357 132.709 241.792ZM145.928 237.504C146.131 237.504 146.307 237.584 146.456 237.744C146.616 237.893 146.696 238.091 146.696 238.336C146.696 238.389 146.691 238.443 146.68 238.496C146.669 238.549 146.653 238.597 146.632 238.64L144.184 245.488C144.12 245.669 144.008 245.808 143.848 245.904C143.688 245.989 143.523 246.021 143.352 246C143.043 245.979 142.813 245.808 142.664 245.488L140.856 240.688L141.224 240.72L139.56 245.488C139.411 245.808 139.181 245.979 138.872 246C138.712 246.021 138.547 245.989 138.376 245.904C138.216 245.808 138.104 245.669 138.04 245.488L135.576 238.64C135.533 238.544 135.512 238.443 135.512 238.336C135.512 238.112 135.581 237.92 135.72 237.76C135.869 237.589 136.067 237.504 136.312 237.504C136.483 237.504 136.632 237.547 136.76 237.632C136.899 237.717 136.995 237.845 137.048 238.016L139.096 243.792L138.728 243.76L140.392 239.392C140.531 239.061 140.776 238.896 141.128 238.896C141.32 238.896 141.469 238.939 141.576 239.024C141.683 239.109 141.768 239.232 141.832 239.392L143.528 243.776L143.096 243.824L145.16 238.016C145.267 237.675 145.523 237.504 145.928 237.504Z" fill="white"/>
<path fill-rule="evenodd" clip-rule="evenodd" d="M159.5 240C159.5 239.586 159.836 239.25 160.25 239.25H170.75C171.164 239.25 171.5 239.586 171.5 240C171.5 240.414 171.164 240.75 170.75 240.75H160.25C159.836 240.75 159.5 240.414 159.5 240Z" fill="white"/>
<path fill-rule="evenodd" clip-rule="evenodd" d="M164.97 234.22C165.263 233.927 165.737 233.927 166.03 234.22L171.28 239.47C171.573 239.763 171.573 240.237 171.28 240.53L166.03 245.78C165.737 246.073 165.263 246.073 164.97 245.78C164.677 245.487 164.677 245.013 164.97 244.72L169.689 240L164.97 235.28C164.677 234.987 164.677 234.513 164.97 234.22Z" fill="white"/>
</svg>
